<?xml version="1.0" standalone="no"?>
<!DOCTYPE svg PUBLIC "-//W3C//DTD SVG 20010904//EN"
 "http://www.w3.org/TR/2001/REC-SVG-20010904/DTD/svg10.dtd">
<svg version="1.0" xmlns="http://www.w3.org/2000/svg"
 width="200.000000pt" height="200.000000pt" viewBox="0 0 200.000000 200.000000"
 preserveAspectRatio="xMidYMid meet">

<g transform="translate(0.000000,200.000000) scale(0.100000,-0.100000)"
fill="#000000" stroke="none">
<path d="M903 1739 c-95 -11 -211 -50 -298 -101 -84 -49 -226 -189 -274 -272
-45 -75 -90 -204 -98 -278 l-6 -58 249 0 249 0 24 55 c46 107 152 175 272 175
109 0 237 -94 266 -194 l9 -31 237 -3 c273 -3 249 -16 217 118 -92 381 -456
634 -847 589z"/>
<path d="M931 1108 c-58 -39 -76 -72 -76 -138 0 -66 18 -99 76 -138 68 -47
186 -15 226 61 36 69 14 164 -49 208 -48 35 -133 38 -177 7z"/>
<path d="M233 852 c8 -74 53 -203 98 -278 48 -83 190 -223 274 -272 447 -261
1024 -15 1145 488 32 134 56 121 -217 118 l-236 -3 -14 -41 c-19 -57 -70 -114
-134 -149 -48 -27 -63 -30 -139 -30 -68 0 -93 5 -125 22 -53 28 -121 102 -145
158 l-19 45 -247 0 -247 0 6 -58z"/>
</g>
</svg>
